# xmcd CD database file
#
# Track frame offsets:
#	150
#	16094
#	33836
#	47748
#	60504
#	76765
#	94770
#	115218
#	138131
#	159309
#	175204
#	185605
#	197961
#	214112
#	236270
#	255536
#
# Disc length: 3730 seconds
#
# Revision: 0
# Processed by: cddbd v1.5.1PL0 Copyright (c) Steve Scherf et al.
# Submitted via: CDex 1.40Release
#
DISCID=c50e9010
DTITLE=Clint Black - Greatest Hits II
DYEAR=2001
DGENRE=Country
TTITLE0=The Shoes You're Wearing
TTITLE1=Nothin' But The Taillights
TTITLE2=Nothing's News
TTITLE3=Walkin' Away
TTITLE4=When My Ship Comes In
TTITLE5=Something That We Do
TTITLE6=When I Said I Do (with Lisa Hartman Black)
TTITLE7=Been There (with Steve Wariner)
TTITLE8=Still Holding On (with Martina McBride)
TTITLE9=Nobody Home
TTITLE10=One More Payment
TTITLE11=One Emotion
TTITLE12=Easy For Me To Say (with Lisa Hartman Black)
TTITLE13=Little Pearl And Lily's Lullaby
TTITLE14=Money Or Love
TTITLE15=Put Yourself In My Shoes (Blues Version)
EXTD=YEAR: 2001 ID3G: 2
EXTT0=
EXTT1=
EXTT2=
EXTT3=
EXTT4=
EXTT5=
EXTT6=
EXTT7=
EXTT8=
EXTT9=
EXTT10=
EXTT11=
EXTT12=
EXTT13=
EXTT14=
EXTT15=
PLAYORDER=
